<?xml version="1.0" encoding="utf-8"?>
<!-- Generator: Adobe Illustrator 22.0.0, SVG Export Plug-In . SVG Version: 6.00 Build 0)  -->
<svg version="1.1" id="图层_1" xmlns="http://www.w3.org/2000/svg" xmlns:xlink="http://www.w3.org/1999/xlink" x="0px" y="0px"
	 viewBox="0 0 1280 800" style="enable-background:new 0 0 1280 800;" xml:space="preserve">
<style type="text/css">
	.st0{fill:#3296FA;}
	.st1{fill:#E5E6EB;}
	.st2{fill:#FFFFFF;}
	.st3{fill:#FFBD00;}
	.st4{fill:#050F64;}
	.st5{fill:#155BCD;}
	.st6{fill:#EA8096;}
	.st7{fill:#84A9FF;}
	.st8{fill:#FF654F;}
	.st9{fill:#F5BDC8;}
	.st10{fill:#F5B48E;}
	.st11{display:none;fill:#155BCD;}
	.st12{display:none;fill:#84A9FF;}
</style>
<title>login-bg</title>
<polygon class="st0" points="782.6,-0.2 1280.3,-0.2 1280.3,799.8 509.3,799.8 "/>
<path class="st1" d="M1086.3,494.9c-8.3,24.4-22,46.6-40,65.1c-8.5,8.7-19,14.7-27.6,22.9c-2.7,2.7-5.2,5.7-7.6,8.7
	c-1.7,2.1-3.3,4.2-5.2,6.1H700c-5.5-1.7-10.8-3.7-16-6.1c-9.4-4.2-18.1-9.7-26-16.2c-45.6-38.4-51.4-106.6-13-152.2
	c1.7-2.1,3.6-4.1,5.5-6c15.3-15.5,34.8-25.8,53.9-35.8c18.5-9.7,37.2-19.5,55.7-29.2c14-7.3,28.2-14.8,43.2-19.5
	c10.7-3.4,22.6-6,29.8-14.8c10.2-12.4,6.4-31,11.4-46.4c5.7-17.1,22-28.4,38.7-34.7c44.2-16.8,95.9-6.6,134.1,21.5
	s63.4,72.4,73.9,119.3C1100,416.3,1099.2,457.5,1086.3,494.9z"/>
<path class="st2" d="M1090.4,423.6c-28.7,6-51.8,28.1-68.3,52.8s-28,52.5-43.7,77.7c-3.8,6.1-8,12.3-8.5,19.5
	c-0.6,6.9,2.9,14.4,9.3,13.8c2.7-11.1,8.9-22.9,18.8-35.8c3-3.9,6.1-7.7,9.1-11.3c8-9.9,16.3-20,22-31.6c2.9-6,5.3-12.3,7.4-18.6
	c1.5-4.3,3.1-8.8,4.9-13.1c5.5-13,12.2-21.9,20.5-27.1c-8,4.9-13.4,15.2-18.7,27.9c-1.8,4.2-3.3,8.7-4.9,13
	c-2.1,6.4-4.6,12.7-7.5,18.8c-5.8,11.7-14.2,22-22.3,32c-3,3.7-6.1,7.5-9,11.3c-9.5,12.4-15.5,23.5-18.3,34.1
	c7.4-2.6,16-11,21.8-16.1c14.6-12.6,26.5-27.9,35.1-45.1c8.7-17.3,13.8-36.1,20.9-54.2C1066.3,453.5,1075.6,435.7,1090.4,423.6z"/>
<path class="st2" d="M665.5,453c22.2,4.6,40.1,21.7,52.8,40.8s21.7,40.5,33.8,60.1c3,4.7,6.1,9.6,6.6,15.1
	c0.5,5.2-2.3,11.2-7.2,10.7c-2-8.7-6.8-17.6-14.5-27.7c-2.3-2.9-4.7-5.9-7-8.8c-6.2-7.6-12.6-15.5-17-24.4
	c-2.2-4.7-4.1-9.5-5.8-14.4c-1.2-3.3-2.4-6.8-3.8-10.1c-4.2-10.1-9.4-16.9-15.8-20.9c6.1,3.9,10.4,11.8,14.5,21.5
	c1.4,3.3,2.6,6.7,3.8,10c1.7,4.9,3.6,9.8,5.8,14.5c4.5,9.1,11,17.1,17.3,24.7c2.3,2.8,4.7,5.8,7,8.7c7.3,9.6,12,18.2,14.1,26.4
	c-5.7-2-12.3-8.5-16.9-12.4c-11.2-9.7-20.5-21.5-27.2-34.8c-6.7-13.4-10.8-28-16.2-41.8S677,462.4,665.5,453z"/>
<path class="st2" d="M825.9,336.4l-15.5,1.9l9.8,2.5c-8.2,5.9-17,11.1-26.2,15.4c-2.3-8.1-3.6-16.4-4-24.8l5.5,4.6l-5.3-14.6
	c0.4-7.6,2-15,4.6-22.2l12,11.7l-7-22.6c2.8-5,6-9.7,9.8-14l9.2,12.8l0.2-22.1l0,0c22.8-20.4,51.2-27.3,51.2-27.3
	c1,6.6,1.4,13.3,1.1,20l-19.5,18L870,269c-0.9,5.2-2.2,10.3-4,15.3l-23.5,8.7l19.8,0.3c-3.5,7.2-7.7,13.9-12.7,20.1l-16,0.5
	l11.4,4.9C839.1,325.2,832.7,331.1,825.9,336.4z"/>
<path class="st2" d="M653,532.8l-10.5,11.9l8.9-4.8c-2.3,10-5.5,19.8-9.5,29.3c-6.9-4.6-13.4-9.9-19.2-15.8l7-0.2l-13.5-7.3
	c-4.6-6-8.3-12.6-11-19.7l16.6,0.7l-20-12.1c-1.2-5.6-1.8-11.4-1.8-17.1l15.1,3.4L601,484.2l0,0c3.9-30.8,20.7-55,20.7-55
	c5.1,4.2,9.7,9,13.9,14.2l-2.9,26.6l9.3-17.3c2.7,4.5,5,9.3,6.9,14.2l-12,22.5l15-13.1c2,7.7,3.3,15.7,3.6,23.7l-11.7,11.1l11.8-4
	C655.5,515.7,654.6,524.3,653,532.8z"/>
<path class="st2" d="M853.5,455.9c-0.3,1.1-0.4,2.3-0.3,3.4c0.4,4.4,5.5,10.4,9.6,11.7c3.3,1.1,6.9,0.1,9.8-1.7c2.8-2,5.4-4.3,7.6-7
	c-5.2-0.3-10.2-2.1-14.4-5.2c-1.3-0.9-2.3-2.1-3-3.5c-0.6-1.5-0.2-3.2,1.1-4.3c1.3-0.7,3-0.6,4.2,0.4c1.2,0.9,2.2,2,3.4,2.9
	c2.4,1.9,5.6,2.4,8.5,1.5c2.9-0.9,5.3-3.2,6.3-6.1c-6.4,1.5-13.5-2.5-15.8-8.7c1.7-0.9,3.7-0.4,5.5,0.5s3.3,2.1,5.1,2.5
	c2.7,0.7,5.5-0.2,7.3-2.3c1.8-2.2,2.2-5.2,1.1-7.7c-1.8,0-3.6,0.4-5.2,1.1c-1.7,0.5-3.6,1-5.3,0.2s-2.7-3.1-1.4-4.5s3.5-0.8,5.3-1.4
	c2.2-0.8,3.3-3.5,3-5.9c-0.5-2.3-1.5-4.5-3-6.4c-2.2-0.8-4.5-1.6-6.8-1.4s-4.7,2-4.8,4.4c-0.2,1.9,1.1,4,0,5.6s-3.5,1.1-4.6-0.3
	s-1.2-3.4-1.1-5.3s0.4-3.7-0.3-5.5c-2.7-0.4-5.4,0.8-7,3c-1.5,2.3-1.7,5.3-0.4,7.8c1,1.6,2.3,3,3.7,4.3c1.2,1.5,2.3,3.4,1.8,5.3
	c-6.5-0.7-12-6.8-12.2-13.4c-2.5,1.8-4.1,4.6-4.2,7.7c-0.1,3.1,1.2,6.1,3.6,8c1.1,0.9,2.5,1.6,3.6,2.6s1.9,2.6,1.4,4
	c-0.7,1.5-2.2,2.3-3.8,2.1c-1.5-0.3-3-1-4.1-2.1c-4-3.4-7-7.9-8.5-12.9c-2,2.9-3.6,6-4.8,9.3c-1,3.3-1,7.2,0.8,10.2
	c2.3,3.7,9.2,7.3,13.6,6.6c0.6-0.1,1.1-0.2,1.7-0.5c-6,6.9-10.6,16-13.8,27c-2.7,9.4-4.3,19.2-4.9,29
	c-12.3-32.2-19.5-41.2-41.6-64.9c1,0.5,2.1,0.8,3.3,0.9c5.6,0.7,14.4-4.3,17.1-9.3c2.2-3.9,2-8.9,0.5-13.1s-4.1-8-6.7-11.6
	c-1.7,6.6-5.2,12.5-10.2,17.1c-1.4,1.5-3.2,2.5-5.2,2.9c-2,0.4-4.1-0.6-5-2.5c-0.7-1.9,0.2-3.9,1.6-5.3s3.1-2.3,4.5-3.6
	c3-2.7,4.5-6.6,4.2-10.6c-0.3-4-2.5-7.6-5.9-9.7c0.2,8.6-6.7,16.8-15.1,18.1c-0.7-2.4,0.5-4.9,2-6.9s3.4-3.6,4.5-5.9
	c1.6-3.2,1.2-7.1-0.9-10c-2.2-2.8-5.8-4.1-9.2-3.5c-0.7,2.2-0.3,4.7-0.1,7s0.2,4.9-1.1,6.9s-4.5,2.6-6,0.7s-0.1-4.7-0.3-7.2
	c-0.3-3.1-3.5-5.2-6.5-5.4s-6,1-8.8,2.2c-1.6,2.6-3.3,5.4-3.5,8.5s1.3,6.6,4.2,7.4c2.3,0.7,5.2-0.3,6.9,1.5s0.5,4.8-1.7,5.9
	s-4.5,0.6-6.8,0s-4.5-1.5-6.8-1.1c-1.3,3.4-0.6,7.2,1.8,9.9c2.4,2.6,6.2,3.6,9.6,2.6c2.3-0.8,4.2-2.4,6.4-3.5s4.8-2,7-0.9
	c-2.6,8.3-11.6,13.7-19.9,12.1c2.5,6.4,9.7,9.5,16.1,7c1.2-0.5,2.4-1.2,3.4-2c1.4-1.2,2.7-2.8,4.2-3.9s3.7-1.7,5.4-0.7
	s2.2,3.5,1.6,5.4c-0.8,1.9-2,3.5-3.7,4.7c-5.2,4.2-11.6,6.8-18.3,7.5c3.1,3.3,6.3,6.5,10.2,8.6s8.6,3.2,12.8,1.6
	c5.2-1.9,11.5-10,11.8-15.7c0-1.8-0.3-3.6-0.9-5.3c24.4,26,30.9,34.1,44.8,72v3h1.1l0.2,0.7l2.8-1.1c-0.4-1.1-0.8-2.2-1.1-3.2
	C834.8,500.6,838,472.8,853.5,455.9z"/>
<path class="st2" d="M905.3,481.6c-1.3-1-3.2-0.9-4.5,0.2c-0.9,0.9-1.2,2.5-2.4,2.9s-2.3-1-2.3-2.2c0.2-1.3,0.8-2.4,1.7-3.2
	c0.9-0.8,1.7-1.9,2.2-3c-1.2-1.4-3.2-2-5-1.6c-1.8,0.5-3.2,2.1-3.6,3.9c-0.1,1.3-0.1,2.6,0.1,3.9c0.1,1.3-0.4,2.6-1.3,3.5
	c-3.2-3.5-3.4-8.8-0.6-12.6c-2.1-0.2-4.2,0.6-5.6,2.2c-1.4,1.6-2,3.8-1.6,5.9c0.2,1,0.6,2,0.8,3c0.2,1-0.2,2.1-1,2.8
	c-1,0.5-2.2,0.2-2.9-0.6c-0.7-0.8-1.1-1.8-1.2-2.9c-0.6-3.6-0.3-7.3,1.1-10.7c-2.3,0.6-4.5,1.5-6.5,2.7c-2.1,1.3-3.5,3.3-3.9,5.7
	c-0.4,3,1.7,8,4.2,9.6c0.3,0.2,0.7,0.3,1,0.5c-17.3,4.5-35.6,12.4-38,30.7l3,0.4c2.1-16.4,19-23.7,35.3-28c-0.2,0.1-0.3,0.3-0.4,0.5
	c-1.7,2.5-1.6,8,0,10.5c1.4,2,3.5,3.2,5.9,3.5c2.3,0.3,4.7,0.2,7-0.3c-2.6-2.5-4.5-5.7-5.4-9.2c-0.3-1-0.3-2.1-0.1-3.2
	c0.3-1,1.3-1.8,2.3-1.8c1,0.3,1.8,1.1,2,2.1c0.3,1,0.3,2.1,0.5,3.1c0.5,2.1,1.9,3.8,3.8,4.7c1.9,0.9,4.2,0.7,6-0.4
	c-4.1-2.4-6-7.2-4.5-11.7c1.3,0.2,2.1,1.5,2.7,2.7c0.4,1.3,0.9,2.5,1.6,3.6c1.1,1.6,3,2.4,4.8,2.1c1.9-0.4,3.4-1.7,3.9-3.6
	c-0.9-0.8-2-1.4-3.3-1.8c-1.2-0.4-2.2-1.2-2.9-2.2c-0.5-1.2-0.1-2.9,1.1-3s2.2,1.2,3.4,1.6c1.5,0.6,3.3-0.4,4.1-1.8
	c0.7-1.5,1.2-3.1,1.2-4.7C907.6,484,906.5,482.7,905.3,481.6z"/>
<path class="st2" d="M777.3,487l-32.5-9.7c-0.1,1.9,0.3,3.7,1,5.4c0.8,1.6,2.7,2.9,4.5,2.3c1.4-0.5,2.5-1.9,3.9-1.5s1.7,2.2,1.1,3.5
	c-0.8,1.2-2,2-3.4,2.2c-1.4,0.3-2.6,0.9-3.8,1.7c0.5,2.1,2,3.7,4.1,4.3c2.1,0.5,4.2-0.3,5.5-1.9c0.8-1.2,1.5-2.6,2-3.9
	c0.7-1.3,1.7-2.6,3.2-2.8c1.3,5.1-1.2,10.5-6,12.7c3.3,2.3,7.8,1.5,10.1-1.7c0.5-0.7,0.9-1.5,1.1-2.3c0.3-1.1,0.5-2.3,0.8-3.4
	c0.3-1.1,1.3-1.9,2.4-2.2c1.2,0.1,2.3,0.9,2.5,2.2c0.2,1.2,0.1,2.4-0.3,3.5c-1.2,3.9-3.5,7.3-6.7,9.8c2.6,0.7,5.2,1,7.9,0.9
	c2.7-0.1,5.2-1.4,6.9-3.5c1.7-2.5,2.4-7.6,1.3-10.8c16.8,5.9,35.4,17.5,40,34.4l2.9-0.8C820.2,505.2,796.4,492.1,777.3,487z"/>
<path class="st2" d="M994.5,408.5c-34.8-19.4-44.9-21.2-80.1-24.7c1.6,0.8,3,2,4.1,3.4c3.5,4.5,3.9,14.8,1.1,19.7
	c-2.1,3.9-6.4,6.3-10.8,7.3s-8.9,0.6-13.3,0.2c4.7-5,7.8-11.1,9.1-17.8c0.5-2,0.4-4.1-0.2-6c-0.8-1.9-2.7-3.4-4.6-3
	s-3.1,2.2-3.6,4.1s-0.4,3.9-0.7,5.8c-0.7,3.9-3.1,7.3-6.7,9.2c-3.5,1.8-7.7,1.8-11.2-0.1c7.3-4.4,10.7-14.6,7.3-22.5
	c-2.3,0.6-3.9,3-4.7,5.3s-1.3,4.9-2.6,7c-1.9,3-5.3,4.7-8.9,4.4c-3.5-0.5-6.5-2.9-7.7-6.3c1.5-1.8,3.8-2.7,5.9-3.7s4.2-2.3,5.2-4.5
	s-0.2-5.3-2.5-5.6c-2.4-0.2-4,2.4-6.1,3.5c-2.7,1.3-6.1-0.3-7.9-2.9s-2.3-5.7-2.7-8.7c1.4-2.8,2.8-5.6,5.2-7.5s6.1-2.3,8.4-0.2
	c1.7,1.6,2.5,4.7,4.8,5.3s4.2-2.2,4.1-4.5s-1.9-4.3-3.6-5.9s-3.6-3.2-4.5-5.4c3-4.1,8.8-5,12.8-2c1.8,1.3,3,3.2,3.5,5.4
	c0.6,2.4,0.2,4.9,0.3,7.4s0.8,5.2,2.9,6.6c5.5-6.5,5.5-17.3-0.2-23.7c3.9-0.6,7.9,0.7,10.7,3.5c2.8,2.8,4.1,6.8,3.6,10.8
	c-0.3,1.9-1,3.8-1.1,5.7s0.5,4.2,2.2,5s4.1,0.1,5.3-1.5c1.2-1.6,1.9-3.6,2-5.6c0.8-6.8-0.3-13.6-3.3-19.8c4.3,1.1,8.7,2.2,12.6,4.4
	s7.2,5.9,8,10.3c1.1,5.6-2.3,15.2-7,18.4c-0.9,0.6-1.9,1.1-3,1.5c32,3.3,43.2,5.3,73.1,21.5L994.5,408.5z"/>
<path class="st2" d="M933.2,420.3l-30.9,14.3c1.1,1.5,2.5,2.6,4.2,3.4c1.7,0.8,3.7,0.3,4.8-1.2c0.8-1.2,0.7-3.1,2-3.8s2.8,0.5,3,1.9
	c0.1,1.4-0.3,2.8-1.1,3.9c-0.9,1.1-1.5,2.4-1.8,3.8c1.7,1.3,3.9,1.5,5.8,0.5c1.9-1,3-3,3-5.2c-0.1-1.5-0.5-2.9-1-4.3
	c-0.3-1.5-0.4-3.1,0.6-4.3c4.3,3.1,5.8,8.8,3.6,13.6c2.3-0.3,4.4-1.7,5.6-3.7c1.1-2.1,1.3-4.6,0.4-6.8c-0.5-1.1-1.1-2-1.5-3.1
	c-0.5-1.1-0.3-2.3,0.5-3.3c1-0.8,2.3-0.8,3.3,0c0.9,0.8,1.6,1.8,2,2.9c1.5,3.8,2,7.9,1.3,11.9c2.4-1.2,4.6-2.7,6.5-4.6
	c1.9-1.9,3-4.5,3-7.2c-0.2-3-3.1-7.4-6-9c16.5-6.8,38-10.3,52.3-0.5l1.7-2.5C977.3,405.5,950.9,411.5,933.2,420.3z"/>
<path class="st3" d="M830.5,585v0.5c-0.2,3.5-3,6.2-6.5,6.3h-90.2c-3.6,0-6.5-3-6.5-6.6c0,0,0,0,0,0v-92c0-3.6,2.9-6.6,6.5-6.6
	c0,0,0,0,0,0h24.8c-0.7-2.2-1.1-4.5-1.1-6.8c0-11.8,9.6-21.4,21.3-21.4c11.8,0,21.4,9.6,21.4,21.4c0,2.3-0.4,4.6-1.1,6.8h24.8
	c3.5,0,6.3,2.8,6.5,6.3v25.7c-2.1-0.7-4.4-1.1-6.7-1.1c-12,0-21.8,9.8-21.7,21.8c0,12,9.7,21.7,21.7,21.7c2.3,0,4.5-0.4,6.7-1.1
	L830.5,585L830.5,585z"/>
<polygon class="st4" points="977.8,562.9 977.6,563.1 1010.6,578 1015.3,580.1 1040.7,591.7 1031.4,591.7 1010.6,582.2 
	1005.9,580.1 968.4,563.1 968.6,562.9 1005.9,546 1010.6,543.9 1043.6,529 1010.6,514.1 1005.9,512 968.4,494.9 1005.9,477.9 
	1010.6,475.8 1043.6,460.8 1010.6,445.9 1005.9,443.8 972.3,428.5 972.5,428 973.8,425 980.3,428 1010.6,441.7 1015.3,443.8 
	1052.8,460.8 1015.3,477.9 1010.6,479.9 977.6,494.9 1010.6,509.8 1015.3,512 1052.8,529 1015.3,546 1010.6,548.1 "/>
<polygon class="st4" points="1052.6,562.9 1052.8,563.1 1015.3,580.1 1010.6,582.2 989.7,591.7 980.5,591.7 1005.9,580.1 
	1010.6,578 1043.6,563.1 1043.3,562.9 1010.6,548.1 1005.9,546 968.4,529 1005.9,512 1010.6,509.8 1043.6,494.9 1010.6,479.9 
	1005.9,477.9 968.4,460.8 1005.9,443.8 1010.6,441.7 1040.8,428 1047.4,425 1048.7,428 1048.9,428.5 1015.3,443.8 1010.6,445.9 
	977.6,460.8 1010.6,475.8 1015.3,477.9 1052.8,494.9 1015.3,512 1010.6,514.1 977.6,529 1010.6,543.9 1015.3,546 "/>
<rect x="957" y="562.9" class="st5" width="107.2" height="28.7"/>
<rect x="957" y="410.2" class="st5" width="107.2" height="17.7"/>
<path class="st4" d="M995.8,403.5l-13.1,6.7c-0.3-0.4-0.3-1-0.2-1.5c0.2-0.6,0.5-1.1,1-1.4c0.5-0.3,0.9-0.6,1.4-0.9
	c1.2-0.7,2.2-1.7,3-2.9c0.4-0.6,0.8-1.3,1.2-1.9l3.6-1.8c0.8,0.3,1.4,0.8,1.9,1.5C995.1,402.1,995.5,402.8,995.8,403.5z"/>
<path class="st4" d="M1008.6,410.2H994c0-0.5,0.1-1,0.4-1.4c0.4-0.4,0.9-0.7,1.4-0.8c0.6-0.1,1.1-0.1,1.7-0.1
	c1.4-0.1,2.7-0.5,3.9-1.2c0.6-0.4,1.2-0.8,1.9-1.1l4,0.1c0.5,0.6,0.9,1.4,1.1,2.2C1008.6,408.7,1008.7,409.5,1008.6,410.2z"/>
<path class="st4" d="M969.6,360.5l19,41.6l4.8-2l-12.1-38.8l9.7-15.8l11.2,60.5h5.6l-0.4-77.2c0.1-0.8-31.3-2.6-31.3-2.6l-6.9,31.4
	l0,0C969.1,358.6,969.2,359.6,969.6,360.5z"/>
<path class="st6" d="M938,292.7c2.1-0.2,4.2-0.2,6.2-0.2c0.5,0,1-0.1,1.5-0.1s1-0.1,1.5-0.1l1.5-0.1l0.8-0.1l0.8-0.1
	c4-0.5,7.9-1.2,11.7-2.3c1.9-0.6,3.8-1.2,5.7-1.9l1.4-0.5l0.7-0.2l0.7-0.3l2.7-1.1c0.2-0.1,0.5-0.2,0.7-0.3l0.7-0.3l1.4-0.6l1.4-0.6
	l0.7-0.3l0.3-0.1l0.3-0.1l2.7-1.4c0.9-0.5,1.8-0.9,2.7-1.5c1.1-0.6,2.4-0.6,3.6-0.2c1.3,0.5,2.3,1.5,2.9,2.8c0.7,1.2,0.8,2.7,0.3,4
	c-0.4,1.3-1.3,2.3-2.6,2.9c-1,0.4-2,0.8-3,1.1l-3,1.1l-0.4,0.1l-0.4,0.2l-0.8,0.2l-1.5,0.5l-1.5,0.5l-0.8,0.2l-0.8,0.2l-3.1,0.8
	l-0.8,0.2c-0.2,0.1-0.5,0.1-0.8,0.1l-1.6,0.3c-2.1,0.5-4.2,0.8-6.4,1.1c-4.2,0.6-8.5,0.8-12.8,0.6h-0.8l-0.8-0.1l-1.6-0.1
	c-0.5,0-1.1-0.1-1.6-0.2c-0.5-0.1-1.1-0.1-1.6-0.1c-2.1-0.2-4.2-0.5-6.1-0.7c-0.7-0.1-1.2-0.7-1.2-1.5l0,0
	C936.7,293.4,937.2,292.7,938,292.7z"/>
<path class="st7" d="M974.4,298.5l12.3-5.8c3.8-1.7,5.5-6.1,3.9-9.9l0,0c-1.7-3.8-6.2-5.6-10.1-3.9l-12.3,5.8L974.4,298.5z"/>
<path class="st7" d="M995.2,274.4L995.2,274.4c-7.5-1.2-14.6,4-15.8,11.5c-0.1,0.4-0.1,0.8-0.1,1.2l-3.1,39.1
	c12.3,7.3,20,5.5,31.5,2.6l1.6-36.8C1009.7,283.4,1003.7,275.9,995.2,274.4z"/>
<path class="st2" d="M1006.7,282.2c0.9,1.5,1.6,3.2,2,5l0.4-0.2c-0.4-1.8-1.2-3.5-2.1-5L1006.7,282.2z M1004.8,329.6l0.1,0.5
	c0.9-0.2,1.9-0.5,2.9-0.7l0.3-0.1l0.5-9.6l-0.5-0.1l-0.4,9.3C1006.7,329.1,1005.7,329.3,1004.8,329.6z M975.7,326.5l0.2,0.2
	c2.1,1.3,4.4,2.4,6.7,3.2l0.1-0.5c-2.3-0.9-4.5-2-6.6-3.2l1.8-22.9h-0.5L975.7,326.5z M996.4,331.2c-1.1,0.1-2.2,0.2-3.3,0.2v0.5
	c1.2,0,2.3-0.1,3.5-0.2L996.4,331.2z M1008.6,307.3h0.5l0.4-8.8l-0.5,0.1L1008.6,307.3z M978.3,294l0.5,0.1l0.5-7
	c0.4-7.2,6.4-12.8,13.6-12.9c0.4,0,0.7,0,1.1,0.1v-0.5c-0.3,0-0.6,0-0.9-0.1c-7.5,0-13.7,5.9-14.2,13.4L978.3,294z"/>
<path class="st8" d="M976.3,267l25.8,88.1c1.1,3.5-0.9,7.2-4.3,8.3c0,0,0,0-0.1,0l-23.8,7.3c1.3,1.9,2.3,4,2.9,6.2
	c3.4,11.4-2.9,23.5-14.3,27.1c-11.5,3.2-23.4-3.5-26.7-15c-0.6-2.1-0.9-4.2-0.8-6.4l-23.8,7.3c-3.3,1-6.8-0.8-8-4.1
	c0-0.1,0-0.3-0.1-0.4l-7.2-24.2c2.3,0.1,4.5-0.2,6.7-0.9c11.4-3.6,17.8-15.7,14.3-27.1c-3.2-11.3-14.9-17.9-26.2-14.7
	c-0.1,0-0.2,0.1-0.3,0.1c-2.2,0.7-4.2,1.7-6.1,2.9l-7.1-24.2c-0.1-0.2-0.1-0.3-0.2-0.4c-0.8-3.4,1.2-6.8,4.5-7.9l86.4-26.3
	c3.5-1.1,7.2,0.9,8.3,4.4C976.2,266.9,976.3,267,976.3,267z"/>
<path class="st5" d="M877.4,297.1l7.1,24.2l0,0L877.4,297.1c-0.1-0.2-0.1-0.3-0.2-0.4C877.3,296.9,877.3,297,877.4,297.1z"/>
<path class="st5" d="M896.1,361L896.1,361l7.1,24.2c0.1,0.1,0.1,0.3,0.1,0.4c-0.1-0.2-0.1-0.3-0.2-0.4L896.1,361z"/>
<path class="st9" d="M966.8,301.1c0.6-0.5,1.5-0.4,2,0.2c1.4,1.7,2.9,3.4,4.5,5c0.8,0.8,1.6,1.5,2.3,2.2c0.8,0.7,1.6,1.3,2.5,1.9
	c0.8,0.5,1.7,1,2.6,1.3c0.2,0.1,0.4,0.1,0.6,0.2l0.3,0.1l0.2,0.1h0.2c0.4,0.1,0.8,0.1,1.1,0.1c0.4,0,0.7-0.1,1.1-0.1
	c0.3-0.1,0.7-0.2,1-0.4c0.3-0.2,0.6-0.4,0.9-0.6c0.3-0.3,0.6-0.5,0.9-0.8c0.6-0.7,1.2-1.4,1.7-2.2c0.5-0.8,1-1.7,1.4-2.6
	c0.9-1.9,1.7-3.9,2.4-5.9c0.7-2,1.4-4.2,2-6.3s1.1-4.3,1.7-6.5c0.4-1.3,1.2-2.4,2.4-3.1c1.2-0.7,2.7-0.8,4-0.5
	c1.4,0.4,2.5,1.3,3.1,2.6c0.6,1.3,0.7,2.8,0.2,4.1c-0.8,2.2-1.7,4.4-2.7,6.6s-2,4.3-3,6.5c-1.1,2.2-2.3,4.3-3.7,6.4
	c-0.7,1-1.5,2.1-2.3,3.1c-0.9,1-1.9,2-3,2.9c-0.6,0.5-1.2,0.9-1.8,1.2c-0.7,0.4-1.4,0.7-2.1,0.9c-0.7,0.2-1.5,0.4-2.3,0.5
	c-0.8,0.1-1.6,0.1-2.3-0.1c-0.7-0.1-1.5-0.3-2.2-0.5l-0.2-0.1l-0.2-0.1l-0.5-0.2l-0.9-0.5c-1.1-0.6-2.2-1.4-3.2-2.2
	c-0.9-0.8-1.8-1.7-2.7-2.6c-0.8-0.9-1.6-1.8-2.3-2.8c-1.4-1.9-2.7-3.8-3.9-5.8C966.1,302.5,966.2,301.7,966.8,301.1
	C966.8,301.2,966.8,301.2,966.8,301.1z"/>
<path class="st7" d="M1002.9,305.9l4.2-13.1c1.4-3.9-0.6-8.2-4.5-9.6l0,0c-4-1.3-8.3,0.9-9.7,4.9l-4.2,13.1L1002.9,305.9z"/>
<path class="st2" d="M992.2,289.3c0.2,0,0.2,0.1,0.4,0.1l0.4-1.3c0.1-0.5,0.3-0.9,0.5-1.3l-0.3-0.2c-0.2,0.5-0.4,0.9-0.6,1.4
	L992.2,289.3z M999.6,305.3l3.6,1.2l1.3-4l-0.4-0.2l-1.1,3.7l-3.2-1.1L999.6,305.3z M1006.4,295.1l-1.5,4.8l0.4,0.1l1.6-4.9
	L1006.4,295.1z M996.2,283.6l0.4,0.2c1.8-1,4-1.2,6-0.5c1.6,0.5,2.9,1.6,3.8,3.1l0.3-0.3c-0.9-1.5-2.3-2.6-4-3.2
	c-1.1-0.4-2.3-0.5-3.4-0.3C998.2,282.7,997.2,283,996.2,283.6L996.2,283.6z M989.4,297.9l0.3,0.2l1.1-3.3l-0.4-0.1L989.4,297.9z
	 M992.8,303l3.3,1.1l0.1-0.4l-3.2-1.1L992.8,303z"/>
<path class="st9" d="M987.8,271.1l2.4,9.7c2.2,0.9,4.7,0.2,6.2-1.6l-2.4-9.7L987.8,271.1z"/>
<path class="st6" d="M987.8,271.1l1.1,4.4c0.5,0.1,1,0.1,1.4-0.1c0.2,0,0.3-0.1,0.5-0.1c1.7-0.5,3.1-1.6,3.8-3.2l-0.7-2.6
	L987.8,271.1z"/>
<path class="st9" d="M983.5,266l1.2,4l0.5,1.6c0.7,2.2,2.9,3.6,5.2,3.2c0.7-0.2,1.4-0.5,2-0.9c0.1-0.1,0.3-0.2,0.4-0.3l0.2-0.2
	c0.8-0.7,1.3-1.7,1.4-2.7c0.2-0.9,0.3-1.9,0.4-2.9c0.1-0.5,0.1-1.2,0.2-1.8c0.3-2.6-1-5.1-3.2-6.6c-1.8-1.2-4.1-1.1-5.9,0.1
	C983.7,261,982.8,263.6,983.5,266z"/>
<path class="st4" d="M991.9,266.4l-0.8-0.2c0,0,0.8-3.2,0.2-4.1c-0.9-1.3-4.5-0.9-6.1-0.2c-0.5,0.2-0.9,0.6-1.1,1.1
	c-0.3,2-0.2,4,0.2,5.9c0,0-3.6-6.6-1.9-10.6c1.1-2.6,2.1-4.6,5.5-3.6c5.4,1.5,8.7,5.3,8.7,11.4l-3.5-0.8L991.9,266.4z"/>
<ellipse transform="matrix(0.9575 -0.2885 0.2885 0.9575 -34.5161 298.1815)" class="st9" cx="994.2" cy="266.2" rx="2.4" ry="2.2"/>
<path class="st6" d="M695.7,432.1c-0.3,0.6-0.2,1.4,0.3,1.9c1.5,0.9,2.9,2,4.1,3.3c0.6,0.6,1.1,1.2,1.5,1.9l0.2,0.2l0.2,0.2l0.2,0.5
	c0.1,0.3,0.2,0.6,0.3,0.9c0.1,0.3,0.1,0.6,0.1,0.9c0,0.3,0,0.6-0.1,0.9c0,0.1,0,0.3-0.1,0.4c-0.1,0.2-0.1,0.3-0.2,0.4
	c-0.1,0.3-0.3,0.6-0.5,0.9c-0.4,0.6-0.8,1.1-1.3,1.6c-0.5,0.6-1.1,1.1-1.7,1.5c-1.3,1-2.7,1.9-4.2,2.6c-0.8,0.4-1.5,0.8-2.3,1.2
	c-0.8,0.4-1.6,0.7-2.4,1c-3.3,1.3-6.7,2.4-10.2,3.2c-1.1,0.4-2,1.3-2.3,2.4c-0.5,1.3-0.5,2.8,0,4.1l0,0c0.4,1.4,1.3,2.5,2.4,3.3
	c1,0.7,2.3,0.8,3.5,0.4c3.6-1.6,7.1-3.4,10.5-5.5l2.5-1.6c0.8-0.5,1.7-1.2,2.5-1.8c1.7-1.3,3.2-2.7,4.7-4.2c0.8-0.8,1.4-1.7,2-2.6
	c0.7-1,1.2-2.1,1.7-3.2c0.2-0.6,0.4-1.2,0.5-1.9c0.1-0.3,0.1-0.6,0.2-0.9c0-0.3,0.1-0.7,0.1-1c0-1.3-0.2-2.6-0.8-3.9
	c-0.2-0.6-0.5-1.1-0.9-1.6c-0.2-0.2-0.3-0.5-0.5-0.7l-0.3-0.3l-0.3-0.3c-0.7-0.8-1.5-1.5-2.4-2.2c-1.6-1.2-3.4-2.1-5.3-2.9
	C696.7,430.9,696,431.3,695.7,432.1z"/>
<path class="st8" d="M679.2,455.4c3-0.8,6-1.8,8.9-2.9c1.4-0.5,2.9-1.2,4.2-1.9c1.3-0.6,2.7-1.4,3.9-2.2c1.2-0.7,2.3-1.6,3.3-2.5
	c0.8-0.8,1.5-1.7,2-2.7c0.2-0.4,0.3-0.8,0.3-1.2c0-0.5-0.1-0.9-0.2-1.4c-0.4-1.2-1.2-2.2-2.1-3l3.4-4.2c0.8,0.6,1.6,1.2,2.3,1.9
	c0.7,0.8,1.4,1.7,2,2.6c0.6,1.1,1,2.2,1.1,3.4c0.1,1.2,0.1,2.5-0.2,3.7c-0.2,1.1-0.7,2.2-1.2,3.3c-0.5,1-1.1,1.9-1.7,2.7
	c-1.2,1.5-2.5,2.9-4,4.2c-1.4,1.2-2.9,2.3-4.4,3.3c-1.5,1-3,1.9-4.5,2.8c-3.1,1.7-6.2,3.2-9.4,4.6c-1.1,0.4-2.4,0.2-3.3-0.5
	c-1.1-0.9-1.9-2.1-2.3-3.5l0,0c-0.4-1.4-0.5-2.8-0.2-4.2C677.4,456.6,678.2,455.8,679.2,455.4z"/>
<g>
	<title>资源 3</title>
	<g id="图层_2_2_">
		<g id="图层_1-2_1_">
			<path class="st5" d="M746,319.2c11.2,4.1,17.1,16.4,13.2,27.7c-0.7,2.2-1.8,4.2-3.2,6l0,0l23.4,8.3c0.2,0.1,0.3,0.1,0.4,0.1
				c3.2,1.4,4.8,5,3.6,8.3l-8.1,23.9c-1.8-1.4-3.8-2.5-5.9-3.3c-11.1-3.9-23.2,2-27.1,13.2c0,0,0,0,0,0l-0.1,0.3
				c-3.9,11.3,2,23.6,13.2,27.7c2.1,0.7,4.3,1.2,6.6,1.2l-8.1,23.9c-1.1,3.4-4.8,5.2-8.2,4.1h-0.1l-85.2-30.2c-3.4-1.3-5.2-5-4-8.5
				l29.5-86.9c1.1-3.3,4.5-5.1,7.9-4.3c0.1,0.1,0.2,0.1,0.4,0.2l23.4,8.3l0,0c0.1-2.3,0.5-4.6,1.2-6.7c3.8-11.2,15.9-17.2,27.1-13.4
				c0,0,0,0,0,0L746,319.2z"/>
		</g>
	</g>
</g>
<path class="st4" d="M687.7,591.7h15c0-0.5-0.1-1.1-0.5-1.5c-0.4-0.4-0.9-0.7-1.5-0.8c-0.6-0.1-1.2-0.1-1.7-0.1
	c-1.5-0.1-2.9-0.5-4.1-1.3c-0.6-0.4-1.3-0.8-2-1.1l-4.1,0.1c-0.5,0.6-0.9,1.4-1.1,2.2C687.6,590,687.6,590.8,687.7,591.7z"/>
<path class="st4" d="M654.4,591.7h15c0-0.5-0.1-1.1-0.5-1.5c-0.4-0.4-0.9-0.7-1.5-0.8c-0.6-0.1-1.2-0.1-1.8-0.1
	c-1.4-0.1-2.8-0.5-4.1-1.2c-0.6-0.4-1.3-0.8-2-1.1l-4.1,0.1c-0.5,0.6-0.9,1.4-1.1,2.2C654.4,590.1,654.4,590.9,654.4,591.7z"/>
<path class="st4" d="M656.3,507.6l14.6,0.1l0,0c0,0.8,17.3-4.4,17.6-0.3l3.5,29.1c0.3,2.3,0.5,4.6,0.5,7l1.3,43.8h-5.2L673.3,525
	l-12.8,62l-5.2,0.2L656.3,507.6z"/>
<path class="st8" d="M656.3,507.7c11.5,3.9,19.1,6.2,32.2-0.3l-0.2-30.7l-0.1-4.6v-4.9c0-0.4,0-0.9-0.1-1.3
	c-0.5-5.2-3.7-9.7-8.5-11.8c-0.6-0.2-1.3-0.5-2-0.7c-1.5-0.4-3.1-0.5-4.7-0.4c-0.2,0-0.5,0.1-0.7,0.1c-1.2,0.1-2.3,0.4-3.4,0.8
	c-5.4,1.9-9.6,6.4-11,12c-0.4,1.4-0.6,2.8-0.6,4.2v0.5l-0.1,1.7l-0.1,2.2L656.3,507.7z"/>
<path class="st4" d="M688.4,491.1l0.1,14.9h0.2l-0.1-14.9H688.4z M672.7,452.7v0.3h0.2c1.6-0.1,3.2,0,4.7,0.4c0.7,0.2,1.4,0.4,2,0.7
	c4.8,2.1,8.1,6.6,8.5,11.8c0.1,0.4,0.1,0.9,0.1,1.3v4.9l0.1,4.5h0.2l-0.1-4.5v-4.9c0-0.5,0-0.9-0.1-1.4c-0.5-5.3-3.8-9.9-8.7-12
	c-0.6-0.3-1.3-0.5-2-0.7c-1.1-0.3-2.3-0.5-3.5-0.5c-0.4,0-0.9,0-1.3,0.1L672.7,452.7z M656.6,484.9h0.2l0.2-10.7l0.1-2.2v-1.2h-0.2
	v1.2l-0.1,2.2L656.6,484.9z M656,507.9l0.2,0.1c6.8,2.3,11.7,3.8,17,3.8c1.9,0,3.9-0.2,5.8-0.6l-0.2-0.2c-7.8,1.6-14.1-0.4-22.4-3.2
	l0.2-5.4h-0.2L656,507.9z"/>
<path class="st9" d="M678.1,446.8L678,457c-2,1.4-4.6,1.4-6.6-0.1l0.1-10.3L678.1,446.8z"/>
<path class="st6" d="M678.1,446.8l-0.1,4.6c-0.5,0.2-0.9,0.3-1.4,0.3H676c-1.8,0-3.5-0.9-4.5-2.3v-2.8L678.1,446.8z"/>
<path class="st9" d="M681.1,440.5l-0.2,4.2l-0.1,1.7c-0.1,2.4-1.9,4.3-4.3,4.6c-0.8,0-1.5-0.1-2.3-0.3l-0.5-0.2
	c-0.1-0.1-0.2-0.1-0.3-0.2c-0.9-0.5-1.6-1.4-2-2.3c-0.4-0.9-0.8-1.8-1.1-2.7c-0.2-0.5-0.4-1.2-0.6-1.7c-0.8-2.6-0.2-5.4,1.6-7.3
	c1.5-1.6,3.8-2.2,5.9-1.4C679.7,435.7,681.3,438,681.1,440.5z"/>
<path class="st4" d="M669.4,442.2c-1.7-5.2,1-6.1,1-6.1s-0.1-0.7-0.1-0.8c0-0.3,0.1-0.5,0.2-0.8c0.8-1.7,2.5-1.5,4-1.4
	c0.8,0,1.6-0.3,2.2-0.9c0.7-0.6,1.1-1.5,1.8-2c1.2-0.7,2.7-0.4,3.5,0.8c0,0,0,0,0,0c0.2,0.3,0.3,0.5,0.4,0.8
	c0.5,1.7,0.2,3.4-0.8,4.9c-0.9,1.2-2.7,1.5-4,1.7c-0.5,0.1-0.9,0.1-1.4,0.1c-1.4,0.1-2.8-0.6-3.5-1.9c0.6,1,0.8,2.3,0.3,3.5
	c-0.2,1-0.2,2.1,0,3.2h-0.2C671.7,441.8,670.5,441.3,669.4,442.2z"/>
<path class="st4" d="M680.2,438c0.5,1.7,0.7,3.5,0.8,5.3c0.5-2,0.5-4,0.1-6L680.2,438z"/>
<path class="st9" d="M673,443.5c-0.1,1.3-1.2,2.3-2.5,2.2c-1.3,0.1-2.4-1-2.4-2.2c0,0,0,0,0,0c0.1-1.3,1.2-2.3,2.5-2.2
	C671.8,441.3,672.9,442.2,673,443.5z"/>
<path class="st9" d="M696.8,463l-2.7,8.7c0.1,0,0.2-0.1,0.2-0.1c2.3-0.8,4.6-1.9,6.7-3.2c2-1.3,3.8-2.8,5.5-4.4
	c1.4-1.3,2.9-2.8,4.8-4.8c1.7-1.8,3.3-3.6,4.4-4.9c0.2-0.2,0.3-0.4,0.4-0.6c0.2-0.7,0-1.4-0.5-1.9c-0.6-0.8-1.7-0.9-2.5-0.2
	c-2,1.7-3.6,3-5,4.2c-2,1.5-3.6,2.8-5.1,3.8c-1.6,1.1-3.4,2.1-5.2,3C697.5,462.7,697.2,462.9,696.8,463z"/>
<path class="st10" d="M662.4,466.8l1.3-4.2c-0.5,0.6-0.8,1.2-1,1.9c-0.1,0.2-0.1,0.4-0.2,0.6C662.4,465.7,662.4,466.3,662.4,466.8z"
	/>
<path class="st4" d="M666.4,472.1c1.4,0.2,2.7,0.4,3.9,0.5l0.7-2.3l4.8,0.5l-0.3,2.4l0,0l2.6,0.2c1.9,0.1,4,0.2,6.1,0.2
	c2.2,0,4.3-0.2,6.4-0.5c0.3-0.1,0.7-0.1,1-0.1l-1.7-2.2l18.4-10.3l1.3,1.5l2.2-2.2l0.2-0.3l-4.2-4.6l-0.3,0.2
	c-1.6,1.3-3,2.4-4.4,3.4c-1.4,1-2.9,2-4.5,2.9c-1.4,0.8-3,1.4-4.5,1.9c-1.5,0.4-3.1,0.6-4.7,0.7h-1.4v2l-13.3-0.1l0.6-3.9
	c-2.3-0.5-4.7-1.2-7-1.8c-2.4-0.6-5,1.2-5.9,4.2c-0.1,0.2-0.1,0.5-0.2,0.8c-0.4,1.7,0,3.5,0.9,5C664,471.2,665.1,471.9,666.4,472.1z
	"/>
<path class="st8" d="M666.4,471.7c3.9,0.5,7.7,1,11.7,1.3c2,0.1,4,0.2,6.1,0.2c2.1,0,4.3-0.2,6.4-0.5c2.2-0.4,4.3-1,6.4-1.9
	c2-0.9,3.9-2,5.7-3.3c1.7-1.2,3.3-2.5,4.8-3.9c1.4-1.4,2.9-2.8,4.2-4.3l-3.6-4c-1.4,1.2-3,2.4-4.4,3.5c-1.4,1.1-3,2.1-4.5,2.9
	c-1.5,0.8-3,1.5-4.6,1.9c-1.5,0.5-3.2,0.7-4.8,0.7c-3.5,0-7-0.3-10.4-1.1c-3.6-0.7-7.2-1.6-10.9-2.6c-2.4-0.6-4.9,1.5-5.6,4.6
	C662.3,468.4,663.9,471.4,666.4,471.7z"/>
<path class="st6" d="M912.9,508.6c-0.3-0.8,0.1-1.6,0.8-1.9c2.1-0.9,4.2-1.9,6.3-2.9s4.1-2,6.1-3.2c1.9-1.1,3.7-2.3,5.4-3.7
	c1.6-1.3,3-2.9,4.2-4.5c2.3-3.3,3.8-7.4,5-11.7l0.5-1.6l0.4-1.6c0.2-1.1,0.5-2.2,0.8-3.3c0.5-2.2,1-4.5,1.4-6.8
	c0.6-2.8,3.3-4.6,6.1-4c0.1,0,0.2,0,0.3,0.1c2.8,0.8,4.5,3.7,3.7,6.5c0,0.1,0,0.2-0.1,0.3c-0.8,2.2-1.5,4.5-2.3,6.8
	c-0.4,1.2-0.8,2.3-1.3,3.4l-0.7,1.7c-0.2,0.5-0.5,1.2-0.7,1.7c-1,2.3-2.1,4.6-3.3,6.8c-1.3,2.3-2.8,4.4-4.5,6.4
	c-1.8,1.9-3.8,3.6-6,5c-2.1,1.3-4.3,2.4-6.6,3.3c-2.2,0.9-4.5,1.7-6.7,2.4c-2.3,0.7-4.5,1.4-6.7,2.1
	C913.9,509.8,913.1,509.4,912.9,508.6C912.9,508.6,912.9,508.6,912.9,508.6z"/>
<path class="st5" d="M951.2,483l3.3-11.6c1.1-3.4-0.7-7.1-4.1-8.2c0,0,0,0-0.1,0l0,0c-3.5-1-7.2,1-8.3,4.6l-3.3,11.6L951.2,483z"/>
<path class="st4" d="M927.2,591.7H837c-3.6,0-6.5-3-6.5-6.6c0,0,0,0,0,0v-25.2c-11.4,3.7-23.7-2.5-27.5-13.9
	c-3.7-11.4,2.5-23.7,13.9-27.5c4.4-1.4,9.1-1.4,13.5,0v-25.2c0-3.5,2.7-6.4,6.1-6.6h25.2c-0.7,2.2-1.1,4.5-1.1,6.8
	c-0.3,11.8,9.1,21.6,20.9,21.8c11.8,0.3,21.6-9.1,21.8-20.9c0-0.3,0-0.6,0-0.9c0-2.3-0.4-4.6-1.1-6.8h25.2c3.5,0.3,6.2,3.2,6.1,6.6
	v91.9C933.7,588.7,930.8,591.6,927.2,591.7z"/>
<polygon class="st9" points="957.9,537.8 949.6,587.7 946.7,587.2 945.8,537.3 "/>
<path class="st3" d="M945.1,537.2l13.5,0.5c3.7-9.2,6.9-29.4,3.1-38.8l-15.2,3.5L945.1,537.2z"/>
<ellipse class="st3" cx="954.5" cy="502.3" rx="7.9" ry="8"/>
<polygon class="st9" points="973.3,535.7 977.8,586.6 975,586.9 961.6,538.3 "/>
<path class="st3" d="M958.8,494.5c3.1-0.9,6.5,0.1,8.5,2.7l0,0v0.1c0.2,0.2,0.3,0.3,0.4,0.5c5.7,8.4,7.5,28,6.3,37.7l-13.2,3
	l-7.3-33.9l0,0C952.3,500.4,954.6,495.9,958.8,494.5z"/>
<path class="st5" d="M958.6,529.6l2,9.3l2.4-0.5v-0.2l-2.2,0.5l-1.9-9L958.6,529.6z M970.4,503.4c1.5,4.3,2.5,8.7,3,13.1h0.2v-0.2
	c-0.5-4.4-1.6-8.8-3-13L970.4,503.4z M974.2,520.4H974c0.2,2.4,0.4,4.7,0.4,6.9l0.2,0.1C974.6,525.1,974.4,522.8,974.2,520.4
	L974.2,520.4z M966.2,537.3l0.1,0.2l8-1.8v-0.2c0.2-1.5,0.3-3,0.3-4.5h-0.2c-0.1,1.6-0.2,3.2-0.3,4.5L966.2,537.3z M955.2,513.3
	l1.7,8h0.3l-1.7-8H955.2z"/>
<path class="st4" d="M968.6,590c0.2-0.4,0.6-0.6,1-0.7c0.4-0.1,0.8-0.2,1.2-0.2c1-0.2,2-0.6,2.8-1.2c0.4-0.3,0.8-0.6,1.3-0.9l3-0.2
	c0.5,0.4,0.8,0.9,1,1.5c0.1,0.5,0.2,1.1,0.3,1.6l0.1,0.6l-10.7,1.2l-0.1-0.6l0,0C968.4,590.8,968.4,590.4,968.6,590z"/>
<path class="st4" d="M939.8,588.5c0.3-0.3,0.7-0.4,1.1-0.4c0.5,0,0.8,0.1,1.2,0.1c1,0.1,2-0.1,3-0.4c0.5-0.2,1-0.4,1.5-0.5l2.9,0.5
	c0.3,0.5,0.5,1.1,0.5,1.7c0,0.5,0,1.1-0.2,1.6l-0.1,0.6l-10.7-1.6l0.1-0.6l0,0C939.3,589.1,939.5,588.8,939.8,588.5z"/>
<path class="st5" d="M957.3,460.1L957.3,460.1c-8.2,0.2-14.7,7-14.5,15.2c0,0.7,0.1,1.5,0.2,2.2l3.6,24.4c6.4,2.4,15.6,1.5,23-0.7
	v-27.9c0.4-6.8-4.7-12.7-11.6-13.2C957.7,460.1,957.5,460.1,957.3,460.1z"/>
<path class="st7" d="M969.5,489.2v10.6h0.2v-10.6H969.5z M951.4,461.1l0.2,0.2c1.8-0.8,3.8-1.2,5.8-1.2c0.4,0,0.9,0,1.3,0.1V460
	c-0.4,0-0.8-0.1-1.1-0.1h-0.2C955.2,459.9,953.2,460.3,951.4,461.1L951.4,461.1z M942.6,477.5l0.8,5.4l0.2-0.1l-0.8-5.3
	c-0.1-0.8-0.2-1.6-0.2-2.4c0-4.8,2.2-9.3,6.1-12.2l-0.2-0.2c-1,0.7-1.9,1.6-2.7,2.5C943.1,468.7,941.9,473.2,942.6,477.5z
	 M944.5,488h-0.2l2,14l0.2,0.1c3,1,6,1.5,9.2,1.4c4,0,7.9-0.5,11.8-1.5v-0.2c-7,1.8-15,2.2-20.8,0.1L944.5,488z M969.5,473.3v6.6
	h0.2v-6.6c0.3-3.5-0.9-6.9-3.3-9.5c-0.9-0.9-1.9-1.7-3-2.4l-0.1,0.3C967.4,464.1,969.8,468.6,969.5,473.3z"/>
<path class="st9" d="M953.1,455.9l0.4,7.4c1.8,1.2,4.2,1,5.8-0.5l-0.4-7.4L953.1,455.9z"/>
<path class="st6" d="M953.2,458.2v0.8c1,0.5,2,0.7,3.1,0.7h0.2c1-0.1,1.9-0.5,2.6-1.2l-0.1-2.2L953.2,458.2z"/>
<path class="st9" d="M950,447.4l0.5,5.3l0.2,1.2c0.3,2.9,2.8,5.1,5.7,5.1c0.3,0,0.6-0.1,0.8-0.1c0.1,0,0.2-0.1,0.3-0.1h0.1
	c0.4-0.2,0.8-0.5,1.1-0.9c0.6-0.8,1.1-1.6,1.4-2.5c0.3-0.7,0.6-1.5,0.8-2.3c0.2-0.9,0.3-1.9,0.2-2.9l-0.2-3.6l-9.3-1.5L950,447.4z"
	/>
<path class="st4" d="M950.2,455.8c0,0,0-3.2,0.2-4.7l0,0c0.1-1.5,0.5-2.9,1.4-2.7c1.2,0.3,2.4-0.3,2.9-1.4v-0.1
	c0.6,0,1.3,0.1,1.9,0.3c3.1,0.8,3.6,0,3.9-0.5c0.6,1.9,0.7,3.9,0.5,5.9l0,0c0,0.1-0.1,0.3-0.1,0.4c-0.2,0.8-0.4,1.6-0.8,2.3
	c-0.3,0.7-0.6,1.4-1.1,2v0.5c2.5-0.7,4.5-2.4,5.5-4.8c2.3-7.3-1.6-11.7-7.1-12.7c-4.8-0.9-7.4,3.5-8.3,7.6
	C948.5,450.5,949.7,455.2,950.2,455.8z"/>
<path class="st9" d="M959.1,451.5c0.1,1.2,1.1,2,2.3,1.9s2-1.1,1.9-2.3c-0.1-1.1-1.1-2-2.2-1.9C959.9,449.3,959,450.3,959.1,451.5z"
	/>
<path class="st9" d="M928.3,513.5c-0.3-0.7,0-1.6,0.7-1.9c2-1.1,4.1-2.2,6.1-3.4s3.9-2.4,5.8-3.6c1.8-1.2,3.5-2.6,5.1-4.1
	c1.5-1.4,2.8-3.1,3.9-4.9c2-3.8,3.4-7.9,4.1-12.1c0.1-0.5,0.2-1.1,0.3-1.7l0.3-1.7c0.2-1.2,0.4-2.2,0.5-3.4c0.3-2.3,0.6-4.5,0.9-7
	c0.4-2.8,3-4.8,5.8-4.4c0.1,0,0.2,0,0.3,0c2.8,0.6,4.7,3.3,4.1,6.2c0,0.1,0,0.2-0.1,0.2l-1.8,7c-0.3,1.2-0.7,2.3-1,3.5l-0.5,1.8
	c-0.2,0.6-0.4,1.2-0.6,1.8c-0.8,2.4-1.7,4.7-2.8,7c-1.1,2.4-2.5,4.6-4.1,6.7c-1.6,2-3.5,3.9-5.6,5.4c-2,1.5-4.1,2.8-6.4,3.9
	c-2.1,1.1-4.3,2.1-6.5,2.9c-2.2,0.9-4.4,1.8-6.5,2.6C929.5,514.6,928.7,514.2,928.3,513.5z"/>
<path class="st5" d="M964.6,484.6l2.4-11.8c0.8-3.5-1.3-7-4.8-7.9l0,0c-3.6-0.7-7.2,1.6-8,5.2l-2.3,11.9L964.6,484.6z"/>
<path class="st7" d="M954.1,470.1l-0.2,1l0.2,0.1l0.2-1c0.6-2.9,3.1-5,6.1-5.3v-0.2c-1.2,0.1-2.3,0.5-3.3,1.1
	C955.5,466.8,954.4,468.3,954.1,470.1z M953.2,475.5l-0.2-0.1l-1.4,6.7l10.6,2.2l0.1-0.2L952,482L953.2,475.5z M963.4,465.4
	c2.5,1.1,4,3.7,3.8,6.4h0.2c0.2-2.9-1.4-5.5-4-6.7L963.4,465.4z M966.2,478.2H966l-1.1,5.7l0.2,0.1L966.2,478.2z"/>
<path class="st4" d="M1106,594.7c0,0.8-0.3,1.6-0.9,2.2c-0.6,0.6-1.3,0.9-2.1,0.9H615c-1.7,0-3-1.4-3-3.1c0-0.8,0.3-1.6,0.9-2.2
	c0.6-0.6,1.3-0.9,2.1-0.9h488C1104.7,591.7,1106,593.1,1106,594.7z"/>
<polygon class="st11" points="655.5,191.4 690.4,192.3 698.5,201.3 687,199.8 687.4,195.8 "/>
<polygon class="st12" points="690.4,192.3 699.3,179.9 655.5,191.4 "/>
<polygon class="st12" points="687.4,195.8 685.9,212.2 655.5,191.4 "/>
<path class="st7" d="M679.4,365.4c0.3-0.8,0.5-1.7,0.5-2.5c0-3.5-2.8-6.4-6.4-6.5c-0.9,0-1.8,0.2-2.7,0.5c0.2-0.7,0.3-1.5,0.3-2.2
	c0.1-4.5-3.5-8.1-7.9-8.2c0,0,0,0-0.1,0c-1.3,0-2.6,0.4-3.8,1c-1.8-6.2-8.2-9.7-14.3-8c-5.1,1.5-8.6,6.2-8.4,11.5
	c0,0.3,0,0.6,0.1,0.9c-0.3-0.1-0.6-0.1-0.8-0.1c-3.7,0.2-6.5,3.3-6.4,7c0,0.2,0,0.4,0.1,0.7h-0.1c-3.3,0-6.1,2.6-6.4,5.9
	L679.4,365.4z"/>
<path class="st7" d="M895.8,208.4c-0.2-0.5-0.3-1-0.3-1.5c0-2,1.6-3.7,3.6-3.7c0.5,0,1,0.1,1.5,0.3c-0.1-0.4-0.2-0.9-0.2-1.3
	c0-2.6,2-4.7,4.6-4.7c0,0,0,0,0.1,0c0.8,0,1.5,0.2,2.2,0.5c1.1-3.5,4.8-5.5,8.3-4.5c2.8,0.9,4.8,3.5,4.7,6.5v0.5h0.5
	c2,0,3.7,1.7,3.6,3.7c0,0,0,0,0,0c0,0.2,0,0.5-0.1,0.7h0.1c1.9,0,3.5,1.5,3.6,3.4L895.8,208.4z"/>
<path class="st5" d="M931.5,258.9L931.5,258.9l0.2-0.9h0.1L931.5,258.9z M925.8,257.1c-1.9-0.5-3.9-1-5.8-1.5l0.2-0.9
	c2,0.5,3.9,0.9,5.8,1.5L925.8,257.1z M914.1,254.5l-5.9-0.9l0.2-0.9l6,0.9L914.1,254.5z M902.2,252.9c-1.9-0.2-3.9-0.4-6-0.5
	l0.1-0.9c2,0.1,4.1,0.4,6,0.5L902.2,252.9z M890.2,251.9c-1.9-0.1-3.8-0.2-6-0.3l0.1-0.9c2.2,0.1,4.2,0.2,6,0.3L890.2,251.9z
	 M878.2,251.3c-1.4-0.1-2.9-0.1-4.4-0.1l-1.7-0.1v-0.9l1.7,0.1c1.4,0.1,2.9,0.2,4.4,0.2V251.3z M866.2,250.7c-2.2-0.1-4.2-0.2-6-0.3
	l0.1-0.9c1.8,0.1,3.8,0.2,6,0.3L866.2,250.7z M854.2,250.1c-2-0.2-4.1-0.3-6-0.5l0.1-0.9c1.9,0.2,3.9,0.4,6,0.5L854.2,250.1z
	 M842.2,248.9c-2-0.2-4-0.5-6-0.9l0.2-0.9c1.9,0.3,3.9,0.6,5.9,0.9L842.2,248.9z M830.4,246.9c-2-0.4-3.9-0.9-5.9-1.3l0.2-0.9
	c1.9,0.5,3.9,0.9,5.8,1.3L830.4,246.9z M818.8,244c-2-0.6-3.9-1.2-5.8-1.9l0.3-0.9c1.8,0.7,3.7,1.3,5.7,1.9L818.8,244z M807.5,239.8
	c-1.9-0.9-3.7-1.7-5.5-2.6l0.4-0.9c1.7,0.9,3.5,1.8,5.4,2.6L807.5,239.8z M796.8,234.2c-1.7-1.1-3.4-2.2-5-3.5l0.5-0.8
	c1.6,1.2,3.3,2.3,4.9,3.4L796.8,234.2z M787.1,226.9c-0.6-0.5-1.1-1.1-1.7-1.6c-0.9-0.9-1.7-1.8-2.6-2.7l0.7-0.6
	c0.8,0.9,1.7,1.8,2.6,2.6c0.5,0.6,1.1,1.1,1.7,1.6L787.1,226.9z M778.9,217.8c-1.2-1.7-2.3-3.4-3.3-5.3l0.8-0.5
	c0.9,1.8,2,3.5,3.2,5.1L778.9,217.8z M779.5,216.6v-0.9c2,0,4-0.1,6-0.2l0.1,0.9C783.6,216.5,781.5,216.5,779.5,216.6L779.5,216.6z
	 M773.5,216.5l-6-0.2l0.1-0.9c2,0.1,4,0.2,6,0.2L773.5,216.5z M791.5,216l-0.1-0.9c0.5-0.1,1.1-0.1,1.6-0.2c1.6-0.1,3-0.3,4.4-0.5
	l0.2,0.9l-4.4,0.5C792.6,215.9,792,215.9,791.5,216L791.5,216z M761.5,215.8c-2-0.1-4-0.4-6-0.6l0.1-0.9c2,0.2,3.9,0.5,6,0.6
	L761.5,215.8z M749.5,214.3c-2-0.3-3.9-0.7-5.9-1.1l0.2-0.9c2,0.4,3.9,0.7,5.9,1L749.5,214.3z M803.4,214.3l-0.2-0.9
	c1.9-0.4,3.8-1,5.7-1.8l0.3,0.9C807.3,213.2,805.4,213.8,803.4,214.3L803.4,214.3z M737.8,212c-2-0.5-3.9-0.9-5.8-1.5l0.2-0.9
	c1.9,0.5,3.9,1,5.8,1.5L737.8,212z M814.7,209.8l-0.5-0.8c1.7-1.1,3.2-2.4,4.5-3.9l0.7,0.6C818.1,207.3,816.5,208.6,814.7,209.8
	L814.7,209.8z M726.1,208.9c-1.9-0.5-3.9-1.2-5.8-1.9l0.3-0.9l5.7,1.9L726.1,208.9z M773.2,206.9c-0.7-2-1.2-4-1.5-6l0.9-0.1
	c0.4,2,0.8,3.9,1.4,5.9L773.2,206.9z M714.7,205c-1.9-0.7-3.8-1.5-5.6-2.2l0.3-0.9c1.8,0.8,3.7,1.6,5.6,2.2L714.7,205z M822.8,200.5
	l-0.8-0.4c0.8-1.8,1.4-3.7,1.7-5.7l0.9,0.2C824.2,196.6,823.6,198.7,822.8,200.5L822.8,200.5z M772.3,194.7l-0.9-0.1
	c0.1-2.1,0.4-4.1,1-6.1l0.8,0.2C772.7,190.7,772.4,192.7,772.3,194.7L772.3,194.7z M823.8,188.5c-0.2-2-0.7-3.9-1.4-5.8l0.8-0.3
	c0.7,1.9,1.2,4,1.4,6L823.8,188.5z M775.4,183.2l-0.8-0.4c0.9-1.8,2-3.6,3.3-5.2l0.7,0.5C777.3,179.7,776.3,181.4,775.4,183.2
	L775.4,183.2z M819.6,177.4c-0.5-0.7-1-1.3-1.6-1.9c-0.8-0.9-1.6-1.6-2.5-2.3l0.5-0.7c0.9,0.7,1.8,1.6,2.6,2.5
	c0.6,0.6,1.1,1.3,1.7,2L819.6,177.4z M782.8,173.9l-0.6-0.7c1.6-1.3,3.3-2.4,5.1-3.4l0.4,0.9C785.9,171.5,784.3,172.6,782.8,173.9
	L782.8,173.9z M810.5,170c-1.8-0.8-3.7-1.4-5.6-1.8l0.2-0.9c2,0.4,4,1,5.8,1.9L810.5,170z M793.2,168.5l-0.2-0.9
	c2-0.5,4-0.7,6.1-0.8v0.9C797,167.7,795.1,168,793.2,168.5L793.2,168.5z"/>
</svg>
