<svg xmlns="http://www.w3.org/2000/svg" viewBox="0 0 944.28 884.77"><defs><style>.cls-1{fill:#f3f4fe;}.cls-2{fill:#d2d6fa;}.cls-3{fill:#b7bfed;}.cls-4{fill:#604970;}.cls-5{fill:#836b96;}.cls-6{fill:#f29495;}.cls-7{fill:#e5888c;}.cls-8{fill:#3c1c39;}.cls-9{fill:#efcbd1;}.cls-10{fill:#c8b3dd;}.cls-11{fill:#503b60;}.cls-12{fill:#915e8c;}.cls-13{fill:#e58389;}.cls-14{fill:#ffb41f;}.cls-15{fill:#f5b5a9;}.cls-16{fill:#ffd41d;}.cls-17{fill:#f4dbde;}.cls-18{fill:#f9e27d;}.cls-19{fill:#962f4a;}.cls-20{fill:#e1617f;}.cls-21{fill:#fff;}.cls-22{fill:#50274c;}.cls-23{fill:#684568;}.cls-24{fill:#3f1b3d;}.cls-25{fill:#f8cdc5;}</style></defs><title>出发</title><g id="图层_2" data-name="图层 2"><g id="图层_1-2" data-name="图层 1"><path class="cls-1" d="M944.28,595.11v10.41A132.49,132.49,0,0,1,866.4,726.21a128.6,128.6,0,0,1-15,5.71,132.58,132.58,0,0,1-39.55,6H758.2a27.33,27.33,0,0,0-27.31,27.32V867.16H274.11V765.25a27.25,27.25,0,0,0-17.36-25.43c-.77-.3-1.55-.57-2.35-.81a27.71,27.71,0,0,0-3-.68,26.33,26.33,0,0,0-4.61-.4H156.44c-1.43,0-2.84,0-4.26-.06a137.22,137.22,0,0,1-84.32-32.24q-4.53-3.81-8.71-8a137.56,137.56,0,0,1,97.29-234.91H262.49a35.76,35.76,0,0,0,1.2-71.51H83.61A83.6,83.6,0,0,1,24.5,248.48c.29-.29.58-.58.88-.86A83.19,83.19,0,0,1,83.61,224a69.19,69.19,0,0,0,46.51-17.88c1.07-1,2.1-2,3.11-3a69,69,0,0,0,19.53-43.82c.1-1.5.15-3,.15-4.54V84.11A27.31,27.31,0,0,1,180.2,56.78H816.81a83.61,83.61,0,0,1,80.09,59.56,84.48,84.48,0,0,1,3.52,24c0,2.9-.15,5.76-.43,8.58a83.49,83.49,0,0,1-83.18,75h-68a48.59,48.59,0,0,0-48.6,48.58h0a48.6,48.6,0,0,0,48.6,48.59c.89,0,1.77,0,2.65.06a63,63,0,0,1,60.36,63v43a43.92,43.92,0,0,0,31.25,42.1A188.93,188.93,0,0,1,866.35,478c21,9.42,43.61,24.48,59,48.42a113.13,113.13,0,0,1,13.13,28.38,137.21,137.21,0,0,1,5.8,40.36Z"/><rect class="cls-2" x="45.99" y="867.16" width="74.06" height="17.61" rx="8.8"/><rect class="cls-2" x="127.22" y="867.16" width="809.94" height="17.61" rx="8.8"/><path class="cls-2" d="M493.63,193.51V867.16H274.11V765.25a27.25,27.25,0,0,0-17.36-25.43c-.77-.3-1.55-.57-2.35-.81a27.71,27.71,0,0,0-3-.68,26.33,26.33,0,0,0-4.61-.4h-9.66V462.72h25.36a35.76,35.76,0,0,0,1.2-71.51H237.13V193.51a12.41,12.41,0,0,1,12.41-12.4H481.2a12.41,12.41,0,0,1,12.43,12.39Z"/><path class="cls-3" d="M251.4,462.72V738.33a27.71,27.71,0,0,1,3,.68V462.72Zm0-254.47v183h3v-180a5.19,5.19,0,0,1,5.19-5.19H471.2a5.18,5.18,0,0,1,5.18,5.18h0V865.66H274.11v1.5H479.37V208.25a5.18,5.18,0,0,0-5.17-5.14H256.59a5.19,5.19,0,0,0-5.19,5.14Z"/><path class="cls-3" d="M296.64,247.62H434.93v11.3H296.64Z"/><path class="cls-3" d="M296.64,283.41H434.93v11.3H296.64Z"/><path class="cls-3" d="M296.64,319.21H434.93v11.3H296.64Z"/><path class="cls-3" d="M290,509.31v71.47h-11.3V509.31Z"/><path class="cls-2" d="M211.27,462.72V737.93H156.44c-1.43,0-2.84,0-4.26-.06a137.22,137.22,0,0,1-84.32-32.24q-4.53-3.81-8.71-8a137.56,137.56,0,0,1,97.29-234.91Z"/><path class="cls-2" d="M211.27,193.51v197.7H83.61A83.6,83.6,0,0,1,24.5,248.48c.29-.29.58-.58.88-.86A83.19,83.19,0,0,1,83.61,224a69.19,69.19,0,0,0,46.51-17.88c1.07-1,2.1-2,3.11-3a69.16,69.16,0,0,0,14.47-22h51.17a12.4,12.4,0,0,1,12.4,12.4Z"/><path class="cls-3" d="M133.2,203.11c-1,1-2,2-3.11,3h58.7a5.18,5.18,0,0,1,5.18,5.18h0v180h3v-183a5.18,5.18,0,0,0-5.17-5.19H133.2ZM194,462.72V737.93h3V462.72Z"/><path class="cls-3" d="M152.56,247.62v11.3H15.64a83.29,83.29,0,0,1,8.86-10.44c.29-.29.58-.58.88-.86Z"/><path class="cls-3" d="M14.27,283.41H152.56v11.3H14.27Z"/><path class="cls-3" d="M14.27,319.21H152.56v11.3H14.27Z"/><path class="cls-3" d="M900,149a83.3,83.3,0,0,1-1.7,10.27H152.76c.1-1.5.15-3,.15-4.54V149Z"/><path class="cls-3" d="M899.65,129.11H152.91V99.93H890a83.55,83.55,0,0,1,6.91,16.41,80.92,80.92,0,0,1,2.75,12.77Z"/><path class="cls-4" d="M458.14,390.18h13.51V470.5H458.14Z"/><circle class="cls-5" cx="464.9" cy="467.38" r="13.2"/><path class="cls-6" d="M341.72,779.22,372,744.69l42.07,36.89-30.29,34.53Z"/><path class="cls-7" d="M354.19,765,372,744.7l42.06,36.89L396.25,801.9Z"/><path class="cls-4" d="M347.2,775.16,373.76,795a35.57,35.57,0,0,1,36.44,57.68L356.71,805.8,330,782.41l5.26-6A8.82,8.82,0,0,1,347.2,775.16Z"/><path class="cls-5" d="M404,800.24a35.55,35.55,0,0,1,.64,47.62l5.55,4.85a35.58,35.58,0,0,0-3.29-50.2,31.84,31.84,0,0,0-2.9-2.27Z"/><path class="cls-8" d="M321.57,781.94a5.47,5.47,0,0,0,0,7.25,6,6,0,0,0,.5.51l79.76,69.94a7.36,7.36,0,0,0,.7.55,8.35,8.35,0,0,0,10.94-12.49,9.56,9.56,0,0,0-1-.9l-3.21-2.52-9.16-7.2-4.26-3.35-9.15-7.19-4.27-3.36-9.15-7.2L369,812.64l-9.16-7.2-4.24-3.33-9.14-7.19-4.27-3.38-9.16-7.2-3.93-3.09c-.11-.09-.23-.17-.35-.25a5.49,5.49,0,0,0-7.19.94Z"/><path class="cls-4" d="M409.29,844.28l-10.86,12.38,4.07,3.57,11-12.53a9.56,9.56,0,0,0-1-.9Z"/><path class="cls-4" d="M395.87,833.73l-10.25,11.69,4.07,3.57,10.44-11.91Z"/><path class="cls-4" d="M382.45,823.18l-9.65,11,4.08,3.58,9.84-11.22Z"/><path class="cls-4" d="M369,812.64,360,823l4.07,3.56L373.3,816Z"/><path class="cls-4" d="M355.61,802.08l-8.43,9.63,4.07,3.57,8.63-9.84Z"/><path class="cls-4" d="M342.2,791.54l-7.84,8.93,4.08,3.57,8-9.15Z"/><path class="cls-4" d="M328.76,781l-7.21,8.23,4.07,3.57,7.42-8.46-3.93-3.09c-.11-.09-.23-.14-.35-.25Z"/><path class="cls-8" d="M581.38,547.5a36.21,36.21,0,0,1,3.35,51.09h0l-171.91,196a3.9,3.9,0,0,1-5.52.36l-48.58-42.6a3.91,3.91,0,0,1-.36-5.51l171.91-196a36.2,36.2,0,0,1,51.1-3.35Z"/><path class="cls-8" d="M558.39,353.47l71.49,11.63h0l-35.4,217.63a36.2,36.2,0,0,1-41.56,29.92h0A36.19,36.19,0,0,1,523,571.11h0l35.4-217.63Z"/><path class="cls-9" d="M568.12,355.11,537.63,542.47l-1.92,11.8a26.06,26.06,0,0,1-6.15,13l-7.31,8.34-158.7,181-4.82-4.23a3.91,3.91,0,0,1-.36-5.51l167-190.44,33-203Z"/><path class="cls-5" d="M431.61,304.82H478.1v82.6H431.61a25.31,25.31,0,0,1-25.31-25.31v-32a25.31,25.31,0,0,1,25.31-25.29Z"/><path class="cls-10" d="M438.81,387.43h-7.2a25.31,25.31,0,0,1-25.31-25.31h0v-32a25.32,25.32,0,0,1,25.31-25.32h7.2a25.32,25.32,0,0,0-25.31,25.32v32a25.31,25.31,0,0,0,25.3,25.32Z"/><path class="cls-5" d="M479.27,193.87,493.42,197h0l-18,80.61h0L430,267.51a25.31,25.31,0,0,1-19.18-30.22,57.3,57.3,0,0,1,68.41-43.42Z"/><path class="cls-10" d="M420,238.93a25.26,25.26,0,0,0,19.18,30.18l36.37,8.11-.08.36-45.37-10.14a25.33,25.33,0,0,1-19.79-24.67,25.83,25.83,0,0,1,.61-5.54,57.29,57.29,0,0,1,68.4-43.43h0l2.78.62A57.29,57.29,0,0,0,420,238.93Z"/><path class="cls-4" d="M525.14,165.3h22.74A27.1,27.1,0,0,1,575,192.4V381.3a27.1,27.1,0,0,1-27.1,27.1H448.72a27.1,27.1,0,0,1-27.1-27.1h0V268.82A103.52,103.52,0,0,1,525.14,165.3Z"/><path class="cls-11" d="M536.38,165.3h13.07A25.53,25.53,0,0,1,575,190.84v192a25.53,25.53,0,0,1-25.54,25.54H464.37a25.54,25.54,0,0,1-25.54-25.54h0v-120a97.54,97.54,0,0,1,97.54-97.54Z"/><path class="cls-4" d="M341.14,769.67l-9.88,11.27,47.12,41.32,16.21-18.49-42.28-37.08c-2.67-2.34-7.67-1-11.17,3Z"/><path class="cls-12" d="M506.09,372.82l71.11-13.77h0l41.92,216.46A36.22,36.22,0,0,1,590.45,618h0A36.21,36.21,0,0,1,548,589.28h0L506.1,372.82Z"/><rect class="cls-6" x="773.88" y="249.4" width="60.03" height="39.25" rx="19.62" transform="translate(-9.9 31.63) rotate(-2.24)"/><rect class="cls-6" x="736.44" y="198.4" width="60.03" height="31.07" rx="15.53" transform="translate(187.56 759.92) rotate(-58.92)"/><rect class="cls-6" x="764.41" y="211.68" width="76.64" height="54.92" rx="27.46" transform="translate(-8.73 31.56) rotate(-2.24)"/><rect class="cls-6" x="605.54" y="168.72" width="65.83" height="144.51" rx="32.91" transform="translate(2.87 489.44) rotate(-42.03)"/><rect class="cls-6" x="633.49" y="219.24" width="183.18" height="81.96" rx="40.98" transform="translate(-38.49 158.17) rotate(-12.13)"/><path class="cls-13" d="M833.92,268.56a19.62,19.62,0,0,1-18.85,19.6L794.3,289a19.54,19.54,0,0,1-6.08-.73,39.07,39.07,0,0,1-5,1.42l-99,21.25a41,41,0,0,1-43-17.73c-.33-.32-.64-.65-.94-1l-52.67-58.44a32.88,32.88,0,0,1-7.27-30.87,32.93,32.93,0,0,0,7.33,13.4l47,52.15,5.68,6.28a10.49,10.49,0,0,0,1,1,41,41,0,0,0,43,17.7l4.69-1,85.44-18.3,8.8-1.89a39.07,39.07,0,0,0,5-1.42,18.93,18.93,0,0,0,6.08.73l15.25-.6,5.52-.21a19.6,19.6,0,0,0,16.78-10.79,19.72,19.72,0,0,1,2,7.9c0,.21,0,.48,0,.73Z"/><circle class="cls-14" cx="616.3" cy="211.66" r="42.44"/><path class="cls-15" d="M546.45,118.05h43v50.17h-43Z"/><path class="cls-12" d="M568,438.78A59.77,59.77,0,0,1,508.2,379h0V357.61H627.71V379A59.76,59.76,0,0,1,568,438.78Z"/><path class="cls-6" d="M598.68,804.64,653.61,794l8.74,45.09-54.93,10.64Z"/><path class="cls-4" d="M599.26,842.82l3.42,17.65,61.52-11.92-4.9-25.34-53.83,10.42a7.85,7.85,0,0,0-6.21,9.19Z"/><path class="cls-7" d="M598.69,804.64,653.62,794l5.13,26.52-54.92,10.64Z"/><path class="cls-4" d="M607.6,842.88l32-8.81a35.57,35.57,0,0,1,67.91,6.55l-69.88,13.49-34.84,6.75-1.51-7.75A8.81,8.81,0,0,1,607.6,842.88Z"/><path class="cls-5" d="M662.2,813.34a35.57,35.57,0,0,1,38,28.67l7.22-1.39a35.57,35.57,0,0,0-41.66-28.17h0a33.1,33.1,0,0,0-3.53.88Z"/><path class="cls-8" d="M597.25,867.27a5.49,5.49,0,0,0,5.74,4.44,3.36,3.36,0,0,0,.71-.08l104.14-20.17a8.35,8.35,0,0,0-2.29-16.52,8.66,8.66,0,0,0-1.32.22l-4,1L688.93,839l-5.26,1.32-11.25,2.8-5.22,1.33-11.3,2.82-5.25,1.32-11.3,2.82-5.27,1.32-11.29,2.82-5.26,1.32-11.33,2.82-4.85,1.21-.41.13a5.51,5.51,0,0,0-3.67,6.25Z"/><path class="cls-4" d="M700.27,836.11l3.13,16.17,5.31-1-3.16-16.35a8.66,8.66,0,0,0-1.32.22Z"/><path class="cls-4" d="M683.71,840.3l2.95,15.26,5.32-1L689,839Z"/><path class="cls-4" d="M667.15,844.44l2.78,14.36,5.32-1-2.83-14.65Z"/><path class="cls-4" d="M650.6,848.58,653.2,862l5.32-1-2.67-13.75Z"/><path class="cls-4" d="M634,852.72l2.44,12.56,5.32-1L639.3,851.4Z"/><path class="cls-4" d="M617.48,856.86l2.26,11.66,5.32-1-2.32-12Z"/><path class="cls-4" d="M600.92,861,603,871.77l5.32-1-2.14-11L601.33,861Z"/><path class="cls-12" d="M575.7,541.72a36.21,36.21,0,0,1,42.43,28.67h0l45,232.58a3.9,3.9,0,0,1-3.09,4.58l-63.43,12.28a3.91,3.91,0,0,1-4.59-3.09L547,584.17a36.2,36.2,0,0,1,28.66-42.43h0Z"/><path class="cls-16" d="M627.71,357.62H508.2V252H627.71Z"/><path class="cls-17" d="M504.54,364.81,514,363h0l88.26,455.76h0l-5.65,1.09a3.9,3.9,0,0,1-4.58-3.09L504.53,364.81h0Z"/><path class="cls-16" d="M475.58,230A64,64,0,0,0,492,272.8c10.19,11.09,24.19,17.95,39.68,17.95h65.1c31.11,0,57.39-27.8,57.14-61.77a64,64,0,0,0-16.43-42.81c-10.16-11.09-24.19-17.95-39.68-17.95h-65.1c-31.11,0-57.39,27.8-57.14,61.77Z"/><path class="cls-6" d="M546.45,118.05v15a61,61,0,0,0,33,21.55,59.49,59.49,0,0,0,10,1.67V118.05Z"/><path class="cls-18" d="M573,291.29h20.73a61.26,61.26,0,0,0,6.34-122.18c-1.74-.18-3.49-.28-5.27-.31H573a61,61,0,0,1,21.8,4c1.8.69,3.55,1.44,5.27,2.29A61.27,61.27,0,0,1,573,291.33Z"/><path class="cls-16" d="M535.81,165.47v19.64H600.1V165.47a10.86,10.86,0,0,0-10.63-10.86h-43A10.86,10.86,0,0,0,535.81,165.47Z"/><path class="cls-18" d="M584.2,154.61a10.86,10.86,0,0,1,10.63,10.86v7.29c1.8.69,3.55,1.44,5.27,2.29v-9.58a10.86,10.86,0,0,0-10.63-10.86Z"/><path class="cls-15" d="M589.64,146.11A61,61,0,0,1,525.2,88.8l-1.56-26.62A33.06,33.06,0,0,1,528,43.73v-.06a33.17,33.17,0,0,1,26.82-16.56l27.26-1.59,6.6-.39a30.52,30.52,0,0,1,32.29,28.64v0l.41,7,.14,2.35.38,6.38.26,4.34,2,33.48a36.69,36.69,0,0,1-34.49,38.74Z"/><path class="cls-6" d="M622.13,73.84a23.08,23.08,0,0,1-2.75-.28L548.2,62.11a25,25,0,0,1-20.26-18.46,33.19,33.19,0,0,1,26.85-16.54l27.26-1.59,6.6-.39a30.52,30.52,0,0,1,32.29,28.64v0l.41,7,.14,2.35.38,6.38Z"/><circle class="cls-8" cx="573.85" cy="89.84" r="4.22"/><circle class="cls-8" cx="603.69" cy="89.84" r="4.22"/><path class="cls-19" d="M600.55,107.11a12.59,12.59,0,0,1-4.31,8.57,8.63,8.63,0,0,1-1,.74,12.41,12.41,0,0,1-8.15,2.27h-.51A12.54,12.54,0,0,1,575,106.31v-1a2.46,2.46,0,0,1,2.6-2.25l20.66,1.53a2.44,2.44,0,0,1,2.32,2.52Z"/><path class="cls-20" d="M587,116.79a10.18,10.18,0,0,1-.33,1.91h-.06A12.52,12.52,0,0,1,575,106.32a9.75,9.75,0,0,1,2.8-.2A10,10,0,0,1,587,116.79Z"/><path class="cls-21" d="M597.84,104.52c-.28,2.44-4.2,4.13-8.85,3.78s-8.28-2.58-8.2-5Z"/><circle class="cls-14" cx="514.1" cy="211.66" r="42.44"/><path class="cls-22" d="M539.14,12.36H611.2a25,25,0,0,1,25,25h0a25,25,0,0,1-25,25H539.14a25,25,0,0,1-25-25h0A25,25,0,0,1,539.14,12.36Z"/><path class="cls-22" d="M545.6,0h52.21a25,25,0,0,1,25,25h0a25,25,0,0,1-25,25H545.6a25,25,0,0,1-25-25h0A25,25,0,0,1,545.6,0Z"/><path class="cls-23" d="M636.2,37.4a25.05,25.05,0,0,1-25,25H597.08a25,25,0,0,0,9.12-48.29c-.29-.58-.6-1.17-.94-1.73A25,25,0,0,0,583.7,0h14.11a25,25,0,0,1,22.52,14.11A25,25,0,0,1,636.2,37.4Z"/><path class="cls-22" d="M517.94,56.11h21v23.4A19.5,19.5,0,0,1,519.44,99h-1.51V56.11Z"/><circle class="cls-22" cx="529.75" cy="45.27" r="27.14"/><path class="cls-24" d="M517.94,63.91a27.19,27.19,0,0,0,7.93,5.82V97.89A19.43,19.43,0,0,1,519.46,99h-1.52V69.72a27.15,27.15,0,0,1,15.77-51.3,27.14,27.14,0,0,0-15.77,45.49Z"/><circle class="cls-15" cx="529.61" cy="93.83" r="15.51"/><path class="cls-6" d="M524.93,92.11a6.7,6.7,0,0,0,3.25,6.66A1.91,1.91,0,0,0,531,97.32l1.15-8.64a2,2,0,0,0-1.82-2.16,2.08,2.08,0,0,0-.7.06A6.72,6.72,0,0,0,524.93,92.11Z"/><rect class="cls-23" x="529.75" y="29.42" width="69.54" height="20.66" rx="9.9"/><path class="cls-4" d="M514.1,165.88s84.69,4.32,27.15,127.56l15.29,8.12s68.89-118-22.23-135.68Z"/><rect class="cls-15" x="582.02" y="327.7" width="39.25" height="60.03" rx="19.62" transform="translate(-7.41 702.67) rotate(-60.26)"/><rect class="cls-15" x="559.33" y="308.41" width="60.03" height="31.07" rx="15.53" transform="translate(-22.24 44.25) rotate(-4.22)"/><path class="cls-15" d="M609.18,338.22l17.15,13.32a27.46,27.46,0,0,1,4.83,38.54h0a27.46,27.46,0,0,1-38.53,4.83l-17.15-13.33a27.46,27.46,0,0,1-4.83-38.53h0A27.46,27.46,0,0,1,609.18,338.22Z"/><rect class="cls-15" x="434.19" y="214.32" width="130.84" height="65.83" rx="32.91" transform="translate(129.81 664.36) rotate(-74.77)"/><rect class="cls-15" x="562.94" y="360.15" width="39.25" height="60.03" rx="19.62" transform="translate(-82.98 610.77) rotate(-52.15)"/><rect class="cls-15" x="427.79" y="219.22" width="140.98" height="65.83" rx="32.91" transform="translate(124.1 666.68) rotate(-74.77)"/><path class="cls-16" d="M516.79,184.12A34.07,34.07,0,0,1,540.72,226h0l-13.17,48.37h0l-65.75-17.9h0L475,208.05a34.08,34.08,0,0,1,41.83-23.93Z"/><path class="cls-15" d="M608.78,375.7a41,41,0,0,1-52.06,18.57c-.37-.17-.75-.32-1.12-.5s-.62-.28-.92-.44-.88-.43-1.31-.65L464,345.21a40.83,40.83,0,0,1-12.35-10l-1-1.22c-.63-.82-1.23-1.67-1.79-2.54-.29-.42-.56-.86-.82-1.31-.54-.88-1-1.78-1.49-2.71a42.6,42.6,0,0,1-2.33-5.68c-.33-1-.6-2-.85-3s-.45-2-.62-3c-.08-.51-.15-1-.22-1.53-.13-1-.22-2-.28-3.07A40.74,40.74,0,0,1,447,289.76c.4-.75.82-1.48,1.25-2.19a40.89,40.89,0,0,1,54.15-14.77l89.4,47.46a41,41,0,0,1,17,55.43Z"/><ellipse class="cls-25" cx="576.06" cy="366.9" rx="14.58" ry="19.86" transform="translate(52.73 805.74) rotate(-72.47)"/></g></g></svg>