<?xml version="1.0" encoding="utf-8"?>
<!-- Generator: Adobe Illustrator 22.0.0, SVG Export Plug-In . SVG Version: 6.00 Build 0)  -->
<svg version="1.1" id="图层_1" xmlns="http://www.w3.org/2000/svg" xmlns:xlink="http://www.w3.org/1999/xlink" x="0px" y="0px"
	 viewBox="0 0 1024 764" style="enable-background:new 0 0 1024 764;" xml:space="preserve">
<style type="text/css">
	.st0{fill:none;}
	.st1{fill:#FFFFFF;}
</style>
<g>
	<title>background</title>
	<rect id="canvas_background" x="-1" y="-1" class="st0" width="1026" height="766"/>
</g>
<g>
	<title>Layer 1</title>
	<g id="XMLID_1_">
		<g>
			<path class="st1" d="M1024,192v256c0,106-86,192-192,192H256v64c0,25.9-15.6,49.3-39.5,59.1c-23.9,9.8-51.4,4.4-69.8-13.9
				l-128-128C6.7,609.3,0,593,0,576c0-16.4,6.3-32.8,18.8-45.3l128-128c18.3-18.3,45.8-23.8,69.8-13.9c23.9,9.9,39.5,33.3,39.5,59.1
				v64h576c35.4,0,64-28.6,64-64V192c0-35.4-28.7-64-64-64H320c-35.4-0.9-63.3-30.3-62.4-65.7C258.5,28.3,285.9,0.9,320,0h512
				C938,0,1024,86,1024,192z"/>
		</g>
		<g>
		</g>
	</g>
</g>
</svg>
